<svg xmlns="http://www.w3.org/2000/svg" width="805" height="600"><rect width="805" height="600" x="0" y="0" fill="#FFFFFF" id="background"/><g id="viz"><g transform="translate(0,0)"><g transform="translate(70,30)"><g class="bars"><rect id="undefined - total" x="10.803662697146393" y="224.156865" height="320.84313499999996" width="74.69021955729781" fill="#ac666e"/><rect id="undefined - total" x="99.18972770406202" y="159.282245" height="385.717755" width="74.69021955729781" fill="#ac666e"/><rect id="undefined - total" x="187.57579271097765" y="165.342645" height="379.657355" width="74.69021955729781" fill="#ac666e"/><rect id="undefined - total" x="275.9618577178933" y="166.26968999999997" height="378.73031000000003" width="74.69021955729781" fill="#ac666e"/><rect id="undefined - total" x="364.3479227248089" y="79.42339500000003" height="465.576605" width="74.69021955729781" fill="#ac666e"/><rect id="undefined - total" x="452.7339877317245" y="74.06114000000001" height="470.93886" width="74.69021955729781" fill="#ac666e"/><rect id="undefined - total" x="541.1200527386402" y="70.64289999999998" height="474.3571" width="74.69021955729781" fill="#ac666e"/><rect id="undefined - total" x="629.5061177455558" y="34.40203500000002" height="510.597965" width="74.69021955729781" fill="#ac666e"/></g><g id="xAxis" transform="translate(0,545)" fill="none" font-size="10" font-family="sans-serif" text-anchor="middle"><path class="domain" stroke="currentColor" d="M0,0H715"/><g class="tick" opacity="1" transform="translate(48.1487724757953,0)"><line stroke="currentColor" y2="6"/><text fill="currentColor" y="9" dy="0.71em">2025-01</text></g><g class="tick" opacity="1" transform="translate(136.53483748271094,0)"><line stroke="currentColor" y2="6"/><text fill="currentColor" y="9" dy="0.71em">2025-02</text></g><g class="tick" opacity="1" transform="translate(224.92090248962654,0)"><line stroke="currentColor" y2="6"/><text fill="currentColor" y="9" dy="0.71em">2025-03</text></g><g class="tick" opacity="1" transform="translate(313.3069674965422,0)"><line stroke="currentColor" y2="6"/><text fill="currentColor" y="9" dy="0.71em">2025-04</text></g><g class="tick" opacity="1" transform="translate(401.6930325034578,0)"><line stroke="currentColor" y2="6"/><text fill="currentColor" y="9" dy="0.71em">2025-05</text></g><g class="tick" opacity="1" transform="translate(490.0790975103734,0)"><line stroke="currentColor" y2="6"/><text fill="currentColor" y="9" dy="0.71em">2025-06</text></g><g class="tick" opacity="1" transform="translate(578.4651625172892,0)"><line stroke="currentColor" y2="6"/><text fill="currentColor" y="9" dy="0.71em">2025-07</text></g><g class="tick" opacity="1" transform="translate(666.8512275242048,0)"><line stroke="currentColor" y2="6"/><text fill="currentColor" y="9" dy="0.71em">2025-08</text></g></g><g id="yAxis" fill="none" font-size="10" font-family="sans-serif" text-anchor="end"><path class="domain" stroke="currentColor" d="M0,545V0"/><g class="tick" opacity="1" transform="translate(0,545)"><line stroke="currentColor" x2="-6"/><text fill="currentColor" x="-9" dy="0.32em">0</text></g><g class="tick" opacity="1" transform="translate(0,490.5)"><line stroke="currentColor" x2="-6"/><text fill="currentColor" x="-9" dy="0.32em">100,000</text></g><g class="tick" opacity="1" transform="translate(0,436)"><line stroke="currentColor" x2="-6"/><text fill="currentColor" x="-9" dy="0.32em">200,000</text></g><g class="tick" opacity="1" transform="translate(0,381.5)"><line stroke="currentColor" x2="-6"/><text fill="currentColor" x="-9" dy="0.32em">300,000</text></g><g class="tick" opacity="1" transform="translate(0,327)"><line stroke="currentColor" x2="-6"/><text fill="currentColor" x="-9" dy="0.32em">400,000</text></g><g class="tick" opacity="1" transform="translate(0,272.5)"><line stroke="currentColor" x2="-6"/><text fill="currentColor" x="-9" dy="0.32em">500,000</text></g><g class="tick" opacity="1" transform="translate(0,218)"><line stroke="currentColor" x2="-6"/><text fill="currentColor" x="-9" dy="0.32em">600,000</text></g><g class="tick" opacity="1" transform="translate(0,163.50000000000003)"><line stroke="currentColor" x2="-6"/><text fill="currentColor" x="-9" dy="0.32em">700,000</text></g><g class="tick" opacity="1" transform="translate(0,108.99999999999997)"><line stroke="currentColor" x2="-6"/><text fill="currentColor" x="-9" dy="0.32em">800,000</text></g><g class="tick" opacity="1" transform="translate(0,54.499999999999986)"><line stroke="currentColor" x2="-6"/><text fill="currentColor" x="-9" dy="0.32em">900,000</text></g><g class="tick" opacity="1" transform="translate(0,0)"><line stroke="currentColor" x2="-6"/><text fill="currentColor" x="-9" dy="0.32em">1,000,000</text></g></g><text y="541" x="715" text-anchor="end" style="font-family: Arial, sans-serif; font-size: 12px; fill: rgb(123, 123, 123); font-weight: bold;">Sets</text><text y="0" x="4" dominant-baseline="hanging" text-anchor="start" style="font-family: Arial, sans-serif; font-size: 12px; fill: rgb(123, 123, 123); font-weight: bold;">Value</text></g></g></g></svg>