<svg xmlns="http://www.w3.org/2000/svg" width="500" height="400"><rect width="500" height="400" x="0" y="0" fill="#FFFFFF" id="background"/><g id="viz"><g transform="translate(0,0)"><g transform="translate(60,60)"><g class="bars"><rect id="undefined - 2025-01" x="13.50253807106597" y="115.16316" height="164.83684" width="32.309644670050766" fill="#e0c2f8"/><rect id="undefined - 2025-02" x="59.31472081218273" y="81.83308" height="198.16692" width="32.309644670050766" fill="#e0c2f8"/><rect id="undefined - 2025-03" x="105.12690355329948" y="84.94668" height="195.05331999999999" width="32.309644670050766" fill="#e0c2f8"/><rect id="undefined - 2025-04" x="150.93908629441623" y="85.42295999999999" height="194.57704" width="32.309644670050766" fill="#e0c2f8"/><rect id="undefined - 2025-05" x="196.751269035533" y="40.80468000000002" height="239.19531999999998" width="32.309644670050766" fill="#e0c2f8"/><rect id="undefined - 2025-06" x="242.56345177664977" y="38.049760000000006" height="241.95024" width="32.309644670050766" fill="#e0c2f8"/><rect id="undefined - 2025-07" x="288.37563451776646" y="36.29359999999999" height="243.7064" width="32.309644670050766" fill="#e0c2f8"/><rect id="undefined - 2025-08" x="334.18781725888323" y="17.67444000000001" height="262.32556" width="32.309644670050766" fill="#e0c2f8"/></g><g id="xAxis" transform="translate(0,280)" fill="none" font-size="10" font-family="sans-serif" text-anchor="middle"><path class="domain" stroke="currentColor" d="M0,0H380"/><g class="tick" opacity="1" transform="translate(29.657360406091353,0)"><line stroke="currentColor" y2="6"/><text fill="currentColor" y="9" dy="0.71em">2025-01</text></g><g class="tick" opacity="1" transform="translate(75.46954314720811,0)"><line stroke="currentColor" y2="6"/><text fill="currentColor" y="9" dy="0.71em">2025-02</text></g><g class="tick" opacity="1" transform="translate(121.28172588832487,0)"><line stroke="currentColor" y2="6"/><text fill="currentColor" y="9" dy="0.71em">2025-03</text></g><g class="tick" opacity="1" transform="translate(167.09390862944161,0)"><line stroke="currentColor" y2="6"/><text fill="currentColor" y="9" dy="0.71em">2025-04</text></g><g class="tick" opacity="1" transform="translate(212.90609137055839,0)"><line stroke="currentColor" y2="6"/><text fill="currentColor" y="9" dy="0.71em">2025-05</text></g><g class="tick" opacity="1" transform="translate(258.71827411167516,0)"><line stroke="currentColor" y2="6"/><text fill="currentColor" y="9" dy="0.71em">2025-06</text></g><g class="tick" opacity="1" transform="translate(304.5304568527918,0)"><line stroke="currentColor" y2="6"/><text fill="currentColor" y="9" dy="0.71em">2025-07</text></g><g class="tick" opacity="1" transform="translate(350.3426395939086,0)"><line stroke="currentColor" y2="6"/><text fill="currentColor" y="9" dy="0.71em">2025-08</text></g><text x="380" y="-4" text-anchor="end" style="font-family: Arial, sans-serif; font-size: 12px; fill: rgb(123, 123, 123); font-weight: bold;">mes</text></g><g id="yAxis" fill="none" font-size="10" font-family="sans-serif" text-anchor="end"><path class="domain" stroke="currentColor" d="M-6,280H0V0H-6"/><g class="tick" opacity="1" transform="translate(0,280)"><line stroke="currentColor" x2="-6"/><text fill="currentColor" x="-9" dy="0.32em">0</text></g><g class="tick" opacity="1" transform="translate(0,252)"><line stroke="currentColor" x2="-6"/><text fill="currentColor" x="-9" dy="0.32em">100,000</text></g><g class="tick" opacity="1" transform="translate(0,224)"><line stroke="currentColor" x2="-6"/><text fill="currentColor" x="-9" dy="0.32em">200,000</text></g><g class="tick" opacity="1" transform="translate(0,196)"><line stroke="currentColor" x2="-6"/><text fill="currentColor" x="-9" dy="0.32em">300,000</text></g><g class="tick" opacity="1" transform="translate(0,168)"><line stroke="currentColor" x2="-6"/><text fill="currentColor" x="-9" dy="0.32em">400,000</text></g><g class="tick" opacity="1" transform="translate(0,140)"><line stroke="currentColor" x2="-6"/><text fill="currentColor" x="-9" dy="0.32em">500,000</text></g><g class="tick" opacity="1" transform="translate(0,112)"><line stroke="currentColor" x2="-6"/><text fill="currentColor" x="-9" dy="0.32em">600,000</text></g><g class="tick" opacity="1" transform="translate(0,84.00000000000001)"><line stroke="currentColor" x2="-6"/><text fill="currentColor" x="-9" dy="0.32em">700,000</text></g><g class="tick" opacity="1" transform="translate(0,55.999999999999986)"><line stroke="currentColor" x2="-6"/><text fill="currentColor" x="-9" dy="0.32em">800,000</text></g><g class="tick" opacity="1" transform="translate(0,27.999999999999993)"><line stroke="currentColor" x2="-6"/><text fill="currentColor" x="-9" dy="0.32em">900,000</text></g><g class="tick" opacity="1" transform="translate(0,0)"><line stroke="currentColor" x2="-6"/><text fill="currentColor" x="-9" dy="0.32em">1,000,000</text></g><text x="4" text-anchor="start" dominant-baseline="hanging" style="font-family: Arial, sans-serif; font-size: 12px; fill: rgb(123, 123, 123); font-weight: bold;">total [sum]</text></g></g><text y="4" x="4" style="font-family: Arial, sans-serif; font-size: 12px; fill: black; font-weight: bold; dominant-baseline: hanging;"/></g></g></svg>