<svg xmlns="http://www.w3.org/2000/svg" width="532" height="400"><rect width="532" height="400" x="0" y="0" fill="#FFFFFF" id="background"/><g id="viz"><g transform="translate(0,0)"><g transform="translate(66,25)"><g class="bars"><rect id="undefined - 2025-01" x="9.778270509977801" y="146.010435" height="208.989565" width="44.124445676274945" fill="#b49ed9"/><rect id="undefined - 2025-02" x="63.680986696230576" y="103.752655" height="251.247345" width="44.124445676274945" fill="#b49ed9"/><rect id="undefined - 2025-03" x="117.58370288248335" y="107.700255" height="247.299745" width="44.124445676274945" fill="#b49ed9"/><rect id="undefined - 2025-04" x="171.48641906873613" y="108.30411" height="246.69589000000002" width="44.124445676274945" fill="#b49ed9"/><rect id="undefined - 2025-05" x="225.3891352549889" y="51.73450500000002" height="303.265495" width="44.124445676274945" fill="#b49ed9"/><rect id="undefined - 2025-06" x="279.29185144124165" y="48.24166" height="306.75834" width="44.124445676274945" fill="#b49ed9"/><rect id="undefined - 2025-07" x="333.19456762749445" y="46.01509999999998" height="308.98490000000004" width="44.124445676274945" fill="#b49ed9"/><rect id="undefined - 2025-08" x="387.09728381374725" y="22.408665000000013" height="332.59133499999996" width="44.124445676274945" fill="#b49ed9"/></g><g id="xAxis" transform="translate(0,355)" fill="none" font-size="10" font-family="sans-serif" text-anchor="middle"><path class="domain" stroke="currentColor" d="M0,0H441"/><g class="tick" opacity="1" transform="translate(31.840493348115274,0)"><line stroke="currentColor" y2="6"/><text fill="currentColor" y="9" dy="0.71em">2025-01</text></g><g class="tick" opacity="1" transform="translate(85.74320953436805,0)"><line stroke="currentColor" y2="6"/><text fill="currentColor" y="9" dy="0.71em">2025-02</text></g><g class="tick" opacity="1" transform="translate(139.64592572062082,0)"><line stroke="currentColor" y2="6"/><text fill="currentColor" y="9" dy="0.71em">2025-03</text></g><g class="tick" opacity="1" transform="translate(193.5486419068736,0)"><line stroke="currentColor" y2="6"/><text fill="currentColor" y="9" dy="0.71em">2025-04</text></g><g class="tick" opacity="1" transform="translate(247.45135809312637,0)"><line stroke="currentColor" y2="6"/><text fill="currentColor" y="9" dy="0.71em">2025-05</text></g><g class="tick" opacity="1" transform="translate(301.3540742793791,0)"><line stroke="currentColor" y2="6"/><text fill="currentColor" y="9" dy="0.71em">2025-06</text></g><g class="tick" opacity="1" transform="translate(355.2567904656319,0)"><line stroke="currentColor" y2="6"/><text fill="currentColor" y="9" dy="0.71em">2025-07</text></g><g class="tick" opacity="1" transform="translate(409.1595066518847,0)"><line stroke="currentColor" y2="6"/><text fill="currentColor" y="9" dy="0.71em">2025-08</text></g><text x="441" y="-4" text-anchor="end" style="font-family: Arial, sans-serif; font-size: 12px; fill: rgb(123, 123, 123); font-weight: bold;">mes</text></g><g id="yAxis" fill="none" font-size="10" font-family="sans-serif" text-anchor="end"><path class="domain" stroke="currentColor" d="M-6,355H0V0H-6"/><g class="tick" opacity="1" transform="translate(0,355)"><line stroke="currentColor" x2="-6"/><text fill="currentColor" x="-9" dy="0.32em">0</text></g><g class="tick" opacity="1" transform="translate(0,319.5)"><line stroke="currentColor" x2="-6"/><text fill="currentColor" x="-9" dy="0.32em">100,000</text></g><g class="tick" opacity="1" transform="translate(0,284)"><line stroke="currentColor" x2="-6"/><text fill="currentColor" x="-9" dy="0.32em">200,000</text></g><g class="tick" opacity="1" transform="translate(0,248.49999999999997)"><line stroke="currentColor" x2="-6"/><text fill="currentColor" x="-9" dy="0.32em">300,000</text></g><g class="tick" opacity="1" transform="translate(0,213)"><line stroke="currentColor" x2="-6"/><text fill="currentColor" x="-9" dy="0.32em">400,000</text></g><g class="tick" opacity="1" transform="translate(0,177.5)"><line stroke="currentColor" x2="-6"/><text fill="currentColor" x="-9" dy="0.32em">500,000</text></g><g class="tick" opacity="1" transform="translate(0,142)"><line stroke="currentColor" x2="-6"/><text fill="currentColor" x="-9" dy="0.32em">600,000</text></g><g class="tick" opacity="1" transform="translate(0,106.50000000000001)"><line stroke="currentColor" x2="-6"/><text fill="currentColor" x="-9" dy="0.32em">700,000</text></g><g class="tick" opacity="1" transform="translate(0,70.99999999999999)"><line stroke="currentColor" x2="-6"/><text fill="currentColor" x="-9" dy="0.32em">800,000</text></g><g class="tick" opacity="1" transform="translate(0,35.49999999999999)"><line stroke="currentColor" x2="-6"/><text fill="currentColor" x="-9" dy="0.32em">900,000</text></g><g class="tick" opacity="1" transform="translate(0,0)"><line stroke="currentColor" x2="-6"/><text fill="currentColor" x="-9" dy="0.32em">1,000,000</text></g><text x="4" text-anchor="start" dominant-baseline="hanging" style="font-family: Arial, sans-serif; font-size: 12px; fill: rgb(123, 123, 123); font-weight: bold;">total [sum]</text></g></g><text y="4" x="4" style="font-family: Arial, sans-serif; font-size: 12px; fill: black; font-weight: bold; dominant-baseline: hanging;"/></g></g></svg>