<svg xmlns="http://www.w3.org/2000/svg" width="1005" height="600"><rect width="1005" height="600" x="0" y="0" fill="#FFFFFF" id="background"/><g id="viz"><g transform="translate(0,0)"><g transform="translate(70,30)"><g class="bars"><rect id="undefined - total" x="11.77886624275127" y="224.156865" height="320.84313499999996" width="73.5943738680886" fill="#ac666e"/><rect id="undefined - total" x="100.04285104938111" y="159.282245" height="385.717755" width="73.5943738680886" fill="#ac666e"/><rect id="undefined - total" x="188.30683585601093" y="165.342645" height="379.657355" width="73.5943738680886" fill="#ac666e"/><rect id="undefined - total" x="276.5708206626408" y="166.26968999999997" height="378.73031000000003" width="73.5943738680886" fill="#ac666e"/><rect id="undefined - total" x="364.83480546927063" y="79.42339500000003" height="465.576605" width="73.5943738680886" fill="#ac666e"/><rect id="undefined - total" x="453.09879027590046" y="74.06114000000001" height="470.93886" width="73.5943738680886" fill="#ac666e"/><rect id="undefined - total" x="541.3627750825303" y="70.64289999999998" height="474.3571" width="73.5943738680886" fill="#ac666e"/><rect id="undefined - total" x="629.6267598891601" y="34.40203500000002" height="510.597965" width="73.5943738680886" fill="#ac666e"/></g><g id="xAxis" transform="translate(0,545)" fill="none" font-size="10" font-family="sans-serif" text-anchor="middle"><path class="domain" stroke="currentColor" d="M0,0H715"/><g class="tick" opacity="1" transform="translate(48.57605317679557,0)"><line stroke="currentColor" y2="6"/><text fill="currentColor" y="9" dy="0.71em">2025-01</text></g><g class="tick" opacity="1" transform="translate(136.84003798342542,0)"><line stroke="currentColor" y2="6"/><text fill="currentColor" y="9" dy="0.71em">2025-02</text></g><g class="tick" opacity="1" transform="translate(225.10402279005524,0)"><line stroke="currentColor" y2="6"/><text fill="currentColor" y="9" dy="0.71em">2025-03</text></g><g class="tick" opacity="1" transform="translate(313.36800759668506,0)"><line stroke="currentColor" y2="6"/><text fill="currentColor" y="9" dy="0.71em">2025-04</text></g><g class="tick" opacity="1" transform="translate(401.63199240331494,0)"><line stroke="currentColor" y2="6"/><text fill="currentColor" y="9" dy="0.71em">2025-05</text></g><g class="tick" opacity="1" transform="translate(489.8959772099447,0)"><line stroke="currentColor" y2="6"/><text fill="currentColor" y="9" dy="0.71em">2025-06</text></g><g class="tick" opacity="1" transform="translate(578.1599620165746,0)"><line stroke="currentColor" y2="6"/><text fill="currentColor" y="9" dy="0.71em">2025-07</text></g><g class="tick" opacity="1" transform="translate(666.4239468232043,0)"><line stroke="currentColor" y2="6"/><text fill="currentColor" y="9" dy="0.71em">2025-08</text></g></g><g id="yAxis" fill="none" font-size="10" font-family="sans-serif" text-anchor="end"><path class="domain" stroke="currentColor" d="M0,545V0"/><g class="tick" opacity="1" transform="translate(0,545)"><line stroke="currentColor" x2="-6"/><text fill="currentColor" x="-9" dy="0.32em">0</text></g><g class="tick" opacity="1" transform="translate(0,490.5)"><line stroke="currentColor" x2="-6"/><text fill="currentColor" x="-9" dy="0.32em">100,000</text></g><g class="tick" opacity="1" transform="translate(0,436)"><line stroke="currentColor" x2="-6"/><text fill="currentColor" x="-9" dy="0.32em">200,000</text></g><g class="tick" opacity="1" transform="translate(0,381.5)"><line stroke="currentColor" x2="-6"/><text fill="currentColor" x="-9" dy="0.32em">300,000</text></g><g class="tick" opacity="1" transform="translate(0,327)"><line stroke="currentColor" x2="-6"/><text fill="currentColor" x="-9" dy="0.32em">400,000</text></g><g class="tick" opacity="1" transform="translate(0,272.5)"><line stroke="currentColor" x2="-6"/><text fill="currentColor" x="-9" dy="0.32em">500,000</text></g><g class="tick" opacity="1" transform="translate(0,218)"><line stroke="currentColor" x2="-6"/><text fill="currentColor" x="-9" dy="0.32em">600,000</text></g><g class="tick" opacity="1" transform="translate(0,163.50000000000003)"><line stroke="currentColor" x2="-6"/><text fill="currentColor" x="-9" dy="0.32em">700,000</text></g><g class="tick" opacity="1" transform="translate(0,108.99999999999997)"><line stroke="currentColor" x2="-6"/><text fill="currentColor" x="-9" dy="0.32em">800,000</text></g><g class="tick" opacity="1" transform="translate(0,54.499999999999986)"><line stroke="currentColor" x2="-6"/><text fill="currentColor" x="-9" dy="0.32em">900,000</text></g><g class="tick" opacity="1" transform="translate(0,0)"><line stroke="currentColor" x2="-6"/><text fill="currentColor" x="-9" dy="0.32em">1,000,000</text></g></g><text y="541" x="715" text-anchor="end" style="font-family: Arial, sans-serif; font-size: 12px; fill: rgb(123, 123, 123); font-weight: bold;">Sets</text><text y="0" x="4" dominant-baseline="hanging" text-anchor="start" style="font-family: Arial, sans-serif; font-size: 12px; fill: rgb(123, 123, 123); font-weight: bold;">Value</text></g><text x="4" y="4" style="font-family: Arial, sans-serif; font-size: 12px; fill: black; font-weight: bold; dominant-baseline: hanging;"/></g><g id="grid"><rect x="0" y="0" width="805" height="600" fill="none" stroke="#ccc"/></g></g><g id="legend" transform="translate(805,30)"><g transform="translate(5,0)"><g class="legendColor" transform="translate(0,0)"><g class="legendCells" transform="translate(0,15.833333015441895)"><g class="cell" transform="translate(0, 0)"><rect class="swatch" height="15" width="15" style="fill: rgb(172, 102, 110);"/><text class="label" transform="translate( 19.999999046325684, 12.499999523162842)" font-family="&quot;Arial&quot;, sans-serif" font-size="10px"><tspan x="0" dy="0em">total</tspan></text></g></g><text class="legendTitle" font-family="&quot;Arial&quot;, sans-serif" font-size="12px" font-weight="bold"><tspan x="0" dy="0em">Colors</tspan></text></g></g></g></svg>